<svg width="700" height="460" viewBox="0 0 700 460" fill="none" xmlns="http://www.w3.org/2000/svg">
<path d="M335.484 170.923C335.068 174.995 334.485 179.067 333.736 182.945C332.986 186.823 332.07 190.41 330.988 193.513C329.906 196.615 328.49 199.039 326.825 200.881C325.159 202.723 323.244 203.595 320.996 203.595C318.748 203.595 316.833 201.656 315.085 197.778C313.336 193.9 311.671 188.762 310.089 182.363C308.507 175.965 307.091 168.79 305.842 160.743C304.593 152.697 303.428 144.553 302.428 136.312C301.429 128.071 300.597 119.927 299.93 112.074C299.264 104.221 298.682 97.338 298.265 91.521C297.433 97.5319 296.517 104.221 295.434 111.59C294.352 118.958 293.103 126.52 291.604 134.179C290.105 141.838 288.523 149.303 286.692 156.671C284.86 164.04 283.028 170.535 281.03 176.255C279.031 181.975 276.866 186.629 274.535 190.119C272.204 193.609 269.789 195.355 267.208 195.355C264.876 195.355 262.628 193.513 260.297 189.925C257.965 186.338 255.801 181.491 253.636 175.577C251.471 169.663 249.473 163.07 247.557 155.799C245.642 148.528 243.894 141.256 242.312 133.888C240.73 126.52 239.231 119.636 238.065 113.044C236.9 106.451 235.901 101.022 235.234 96.5624C235.234 99.8587 235.234 103.543 235.151 107.518C235.068 111.493 235.068 114.401 235.068 116.146C235.068 116.922 235.068 119.54 234.985 123.902C234.901 128.265 234.652 133.597 234.235 139.705C233.819 145.813 233.236 152.406 232.403 159.483C231.571 166.56 230.405 172.959 228.823 178.97C227.241 184.981 225.326 190.022 222.995 194.094C220.663 198.166 217.832 200.396 214.502 200.687C211.754 199.233 209.506 196.906 207.674 193.513C205.842 190.119 204.343 186.144 203.095 181.588C201.846 177.031 200.93 172.087 200.264 166.948C199.597 161.81 199.015 156.671 198.598 151.727C198.182 146.783 197.932 142.129 197.849 137.863C197.766 133.597 197.766 130.107 197.766 127.489C197.766 122.739 198.015 116.825 198.515 109.651C199.015 102.476 199.764 94.9142 200.846 87.0612C201.929 79.2083 203.344 71.2584 205.093 63.4054C206.841 55.5524 209.006 48.4751 211.504 42.2703C214.002 36.0655 216.916 30.9271 220.247 27.0491C223.577 23.1711 227.408 21.1351 231.737 21.1351C233.736 21.1351 235.901 22.4924 238.232 25.1101C240.563 27.7277 242.811 31.3149 245.143 35.6777C247.474 40.0404 249.639 44.8879 251.804 50.2202C253.969 55.5524 256.05 60.9816 257.965 66.4109C259.881 71.8401 261.629 77.0754 263.128 82.0198C264.627 86.9643 265.876 91.2301 266.791 94.6234C267.874 90.8423 269.206 86.3826 270.871 81.3412C272.537 76.2998 274.285 71.0645 276.284 65.6353C278.282 60.206 280.447 54.8738 282.778 49.5415C285.11 44.2093 287.607 39.5557 290.189 35.3868C292.77 31.2179 295.351 27.8247 298.015 25.207C300.68 22.5894 303.344 21.329 306.009 21.329C310.755 21.329 314.835 23.365 318.165 27.4369C321.496 31.5088 324.41 36.8411 326.658 43.4337C328.906 50.0263 330.821 57.2975 332.154 65.4414C333.486 73.5852 334.568 81.632 335.318 89.582C336.067 97.5319 336.567 104.997 336.733 111.88C336.9 118.764 337.066 124.387 337.066 128.653V135.73C337.066 138.736 337.066 142.129 336.983 145.91C336.9 149.691 336.733 153.666 336.483 157.932C336.234 162.198 335.901 166.463 335.484 170.729V170.923Z" fill="#E77370"/>
<path d="M397.599 243.636C389.356 243.636 382.195 241.212 376.034 236.461C369.872 231.711 364.876 225.215 360.88 217.071C356.883 208.928 353.885 199.523 351.97 188.859C350.055 178.194 349.056 166.851 349.056 155.023C349.056 143.971 350.139 132.822 352.22 121.479C354.302 110.135 357.549 99.8587 361.879 90.7454C366.209 81.632 371.704 74.0699 378.365 68.2529C385.026 62.4359 392.936 59.5274 402.095 59.5274C411.254 59.5274 418.498 62.339 424.577 67.9621C430.655 73.5852 435.401 80.8564 438.981 89.6789C442.562 98.5014 445.143 108.584 446.725 119.637C448.307 130.689 449.056 141.741 449.056 152.697C449.056 165.009 447.974 176.643 445.892 187.599C443.811 198.554 440.646 208.249 436.317 216.587C431.987 224.924 426.741 231.517 420.247 236.461C413.752 241.406 406.258 243.83 397.599 243.83V243.636ZM400.014 111.687C397.433 111.687 395.268 112.85 393.436 115.274C391.604 117.698 390.105 120.8 388.856 124.581C387.607 128.362 386.775 132.822 386.192 137.572C385.609 142.323 385.359 147.267 385.359 152.115C385.359 157.641 385.692 163.167 386.275 168.693C386.858 174.219 387.774 179.164 389.023 183.624C390.272 188.083 391.771 191.574 393.602 194.288C395.434 197.003 397.599 198.263 400.18 198.263C403.178 198.263 405.509 196.518 407.258 193.028C409.006 189.538 410.422 185.369 411.421 180.521C412.42 175.674 413.086 170.632 413.419 165.397C413.752 160.162 413.919 155.896 413.919 152.406C413.919 148.14 413.669 143.68 413.169 138.93C412.67 134.179 411.92 129.816 410.838 125.841C409.756 121.866 408.34 118.473 406.592 115.759C404.843 113.044 402.595 111.784 399.93 111.784L400.014 111.687Z" fill="#E77370"/>
<path d="M527.324 16.6754C527.324 20.6504 525.992 24.2375 523.328 27.4369C520.663 30.6363 517.499 33.5448 513.752 35.9685C510.005 38.3923 506.175 40.4282 502.262 41.9794C498.348 43.5306 495.101 44.694 492.52 45.2757C491.438 57.3945 490.605 69.5133 490.022 81.5351C489.439 93.5569 489.106 105.676 489.106 117.794C489.106 124.29 489.273 130.689 489.523 136.991C489.772 143.292 489.939 149.594 489.939 155.896C489.939 158.707 489.689 161.81 489.189 165.203C488.69 168.596 487.94 171.796 486.775 174.801C485.609 177.807 484.027 180.327 482.029 182.363C480.03 184.399 477.533 185.466 474.535 185.466C471.038 185.466 468.207 184.302 466.125 182.072C464.044 179.843 462.378 177.031 461.213 173.638C460.047 170.244 459.298 166.851 458.881 163.07C458.465 159.289 458.299 155.993 458.299 152.987C458.049 143.486 457.799 133.985 457.716 124.484C457.632 114.983 457.549 105.385 457.549 95.7868C457.549 87.7399 457.549 79.8869 457.632 72.1309C457.716 64.3749 457.716 56.5219 457.716 48.4751C455.801 48.7659 453.886 49.0568 451.887 49.1537C449.889 49.2507 447.891 49.3476 445.892 49.3476C444.227 49.3476 442.145 49.1537 439.481 48.7659C436.816 48.3781 434.319 47.6995 431.904 46.633C429.489 45.5666 427.408 44.2093 425.576 42.3672C423.744 40.5252 422.911 38.1984 422.911 35.3868C422.911 30.6363 424.493 26.5643 427.657 22.9772C430.821 19.39 434.901 16.3846 439.814 13.7669C444.727 11.1493 450.222 8.91942 456.3 7.17431C462.378 5.42921 468.29 3.97496 474.202 2.9085C480.114 1.84205 485.526 1.1634 490.438 0.678651C495.351 0.1939 499.181 0 501.929 0C504.677 0 507.258 0.0969498 510.172 0.3878C513.086 0.678651 515.834 1.26035 518.415 2.42375C520.996 3.58716 523.161 5.13836 524.826 7.36821C526.492 9.59807 527.324 12.6035 527.324 16.5785V16.6754Z" fill="#E77370"/>
<path d="M566.625 48.669C566.625 52.2561 565.626 55.4555 563.711 58.1701C561.796 60.8847 559.381 63.0176 556.717 64.7627C554.302 66.5078 551.804 68.3499 549.223 70.2889C546.642 72.2279 544.31 74.4577 542.145 76.8815C539.981 79.3052 538.232 82.0198 536.9 85.0253C535.568 88.0308 534.901 91.424 534.901 95.2051C534.901 98.5014 535.568 101.507 536.9 104.221C538.232 106.936 539.897 109.554 541.896 112.171C543.894 114.789 546.059 117.407 548.39 120.218C550.722 123.03 552.886 126.035 554.885 129.428C556.883 132.822 558.465 136.603 559.881 140.869C561.296 145.134 561.879 150.079 561.879 155.799C561.879 159.774 561.13 164.234 559.714 169.178C558.299 174.123 556.384 179.164 553.886 184.205C551.388 189.247 548.557 194.094 545.226 198.845C541.896 203.595 538.399 207.764 534.652 211.448C530.905 215.132 527.075 218.138 522.995 220.465C518.915 222.792 515.001 223.858 511.255 223.858C507.091 223.858 503.344 222.501 500.097 219.883C496.85 217.265 495.185 213.193 495.185 207.861C495.185 204.274 495.934 200.881 497.433 197.778C498.931 194.676 500.763 191.767 502.928 188.956C505.093 186.144 507.508 183.333 510.172 180.715C512.837 178.097 515.251 175.383 517.416 172.668C519.581 169.954 521.413 167.142 522.911 164.234C524.41 161.325 525.16 158.223 525.16 154.926C525.16 150.37 523.744 145.619 520.996 140.869C518.249 136.118 515.168 131.077 511.754 125.938C508.34 120.8 505.259 115.565 502.512 110.232C499.764 104.9 498.349 99.4709 498.349 93.9447C498.349 87.1582 499.931 79.9839 503.011 72.5187C506.092 65.0536 510.089 58.1701 515.001 51.9653C519.914 45.7605 525.326 40.6221 531.488 36.4533C537.649 32.2844 543.644 30.3454 549.556 30.3454C554.302 30.3454 558.382 31.9936 561.712 35.2899C565.043 38.5862 566.792 43.0459 566.792 48.7659L566.625 48.669Z" fill="#E77370"/>
<path d="M125.645 301.777C125.645 318.453 122.731 334.546 116.819 349.962C110.908 365.377 103.081 379.144 93.2556 391.068C83.4305 402.993 71.94 412.494 58.7843 419.669C45.6286 426.843 31.8901 430.333 17.4022 430.333H16.9026C13.9883 430.333 11.5737 428.782 9.65862 425.68C7.74355 422.577 6.16153 418.602 4.91257 413.852C3.66362 409.101 2.66443 403.769 1.99832 397.952C1.33221 392.135 0.832619 386.318 0.499563 380.792C0.166508 375.266 0 370.127 0 365.764V355.682C0 349.283 -1.01585e-05 342.884 0.249782 336.485C0.499574 330.087 0.666103 323.688 0.999159 317.289C0.999159 315.156 1.08243 312.151 1.33222 308.079C1.58201 304.007 1.83179 299.45 2.16485 294.312C2.4979 289.174 2.91424 283.842 3.41382 278.218C3.9134 272.595 4.41298 267.457 4.99582 262.609C5.57867 257.762 6.16151 253.496 6.74436 249.812C7.32721 246.128 7.99332 243.607 8.82596 242.25C10.9076 238.081 14.2381 234.397 18.5679 231.198C22.8976 227.998 27.7269 225.284 32.8892 223.248C38.0516 221.212 43.214 219.564 48.5429 218.594C53.8718 217.625 58.4513 217.043 62.3647 217.043C73.1057 217.043 82.4313 219.37 90.3414 224.023C98.2514 228.677 104.829 234.882 110.158 242.832C115.487 250.782 119.317 259.798 121.898 269.978C124.48 280.157 125.645 290.919 125.645 302.068V301.777ZM84.5962 310.018C84.5962 305.849 83.9301 301.583 82.6811 297.221C81.4321 292.858 79.517 288.883 77.1857 285.296C74.8543 281.709 71.94 278.8 68.6095 276.667C65.2789 274.534 61.5321 273.371 57.5354 273.371C54.1216 273.371 50.6245 274.34 47.0441 276.182C46.2115 276.764 45.4621 278.509 44.8793 281.418C44.2964 284.326 43.7135 287.913 43.2972 292.082C42.8809 296.251 42.5479 300.808 42.2148 305.752C41.8818 310.697 41.7152 315.35 41.632 319.81C41.5487 324.27 41.4654 328.245 41.3822 331.638C41.2989 335.031 41.2989 337.358 41.2989 338.424V346.859C41.2989 350.543 41.3822 354.227 41.632 357.815C41.8818 361.402 42.1315 364.504 42.4646 367.219C42.7977 369.933 43.3805 371.194 44.2131 371.194C49.1257 371.194 53.955 368.964 58.7843 364.504C63.6136 360.044 67.9434 354.615 71.8568 348.119C75.7702 341.624 78.9342 334.934 81.2656 327.954C83.597 320.973 84.846 314.963 84.846 310.018H84.5962Z" fill="#E77370"/>
<path d="M221.149 396.498C221.149 399.503 220.899 403.09 220.483 407.356C220.067 411.622 219.151 415.597 217.902 419.378C216.653 423.159 214.904 426.455 212.656 429.073C210.408 431.691 207.577 433.048 203.913 433.048C199.167 433.048 195.587 431.012 193.172 426.94C190.758 422.868 189.092 418.021 188.01 412.397C186.928 406.774 186.345 401.054 186.178 395.14C186.012 389.226 185.845 384.67 185.678 381.179C176.353 383.022 167.194 384.573 158.201 385.93C157.952 389.42 157.369 393.686 156.536 398.727C155.703 403.769 154.371 408.713 152.706 413.464C151.041 418.214 148.709 422.286 145.962 425.777C143.214 429.267 139.8 430.915 135.803 430.915C132.723 430.915 130.308 429.558 128.559 426.94C126.811 424.322 125.479 421.22 124.563 417.633C123.647 414.046 123.147 410.265 122.898 406.483C122.648 402.702 122.648 399.503 122.648 396.885C122.648 388.354 123.231 379.822 124.396 371.484C125.562 363.147 126.894 354.809 128.476 346.568C129.226 342.206 130.308 337.067 131.557 331.25C132.806 325.433 134.388 319.325 136.303 313.12C138.218 306.916 140.383 300.711 142.881 294.603C145.379 288.495 148.293 283.066 151.457 278.218C154.621 273.371 158.368 269.493 162.448 266.487C166.528 263.482 171.191 262.028 176.186 262.028C181.182 262.028 185.345 263.288 188.926 265.906C192.506 268.523 195.67 271.82 198.418 276.085C201.166 280.351 203.414 285.102 205.162 290.434C206.911 295.766 208.493 301.196 209.742 306.625C210.991 312.054 211.99 317.483 212.823 322.719C213.655 327.954 214.405 332.607 215.071 336.679C216.736 346.471 218.151 356.36 219.317 366.346C220.483 376.332 221.066 386.318 221.066 396.401L221.149 396.498ZM183.763 341.721C183.763 339.879 183.68 336.97 183.514 332.801C183.347 328.632 182.931 324.561 182.265 320.392C181.599 316.223 180.599 312.539 179.267 309.339C177.935 306.14 176.103 304.492 173.772 304.492C172.523 304.492 171.274 305.461 170.108 307.497C168.942 309.533 167.943 312.054 167.027 315.156C166.111 318.259 165.279 321.652 164.613 325.433C163.947 329.214 163.281 332.801 162.781 336.292C162.281 339.782 161.865 342.884 161.615 345.599C161.365 348.313 161.199 350.349 161.032 351.61C168.776 350.834 176.353 349.768 183.847 348.216V341.721H183.763Z" fill="#E77370"/>
<path d="M380.1 417.633C379.684 422.092 379.018 426.358 378.268 430.624C377.519 434.89 376.52 438.671 375.271 441.967C374.022 445.264 372.606 447.881 370.774 449.917C368.943 451.953 366.861 452.826 364.53 452.826C362.198 452.826 360.117 450.79 358.202 446.621C356.286 442.452 354.538 436.926 352.873 430.042C351.207 423.159 349.625 415.403 348.293 406.677C346.961 397.952 345.629 389.226 344.546 380.307C343.464 371.388 342.548 362.662 341.798 354.13C341.049 345.599 340.466 338.231 340.05 331.929C339.134 338.424 338.135 345.599 336.969 353.646C335.804 361.693 334.388 369.739 332.806 377.98C331.224 386.221 329.475 394.268 327.56 402.218C325.645 410.168 323.647 417.148 321.399 423.353C319.151 429.558 316.903 434.502 314.405 438.283C311.907 442.064 309.326 443.906 306.495 443.906C303.997 443.906 301.499 441.967 299.084 437.992C296.669 434.017 294.172 428.976 291.84 422.577C289.509 416.179 287.344 409.101 285.262 401.248C283.181 393.395 281.349 385.542 279.6 377.689C277.852 369.836 276.353 362.274 275.021 355.294C273.689 348.313 272.689 342.302 271.94 337.552C271.94 341.139 271.94 345.114 271.857 349.38C271.774 353.646 271.774 356.845 271.774 358.687C271.774 359.56 271.774 362.371 271.69 367.122C271.607 371.872 271.357 377.592 270.941 384.185C270.525 390.778 269.858 397.952 268.943 405.514C268.027 413.076 266.778 420.057 265.112 426.552C263.447 433.048 261.366 438.477 258.868 442.84C256.37 447.3 253.289 449.626 249.625 450.014C246.711 448.463 244.296 445.845 242.298 442.258C240.3 438.671 238.718 434.308 237.386 429.364C236.053 424.419 235.054 419.184 234.305 413.561C233.555 407.938 232.973 402.509 232.556 397.079C232.14 391.65 231.89 386.706 231.807 382.149C231.724 377.592 231.724 373.811 231.724 370.903C231.724 365.764 231.973 359.366 232.473 351.61C232.973 343.854 233.805 335.71 234.971 327.275C236.137 318.841 237.635 310.309 239.55 301.777C241.465 293.246 243.714 285.684 246.461 278.994C249.209 272.304 252.29 266.778 255.87 262.512C259.45 258.247 263.614 256.114 268.276 256.114C270.441 256.114 272.773 257.568 275.271 260.477C277.769 263.385 280.266 267.166 282.681 271.82C285.096 276.473 287.594 281.709 289.925 287.526C292.256 293.343 294.505 299.16 296.586 304.977C298.668 310.794 300.583 316.417 302.165 321.846C303.747 327.275 305.079 331.735 306.078 335.516C307.244 331.444 308.743 326.693 310.491 321.264C312.24 315.835 314.155 310.212 316.32 304.298C318.485 298.384 320.733 292.664 323.314 286.944C325.895 281.224 328.56 276.182 331.307 271.626C334.055 267.069 336.886 263.482 339.717 260.67C342.548 257.859 345.462 256.502 348.376 256.502C353.455 256.502 357.868 258.731 361.532 263.094C365.196 267.457 368.276 273.274 370.691 280.351C373.106 287.429 375.104 295.282 376.603 304.104C378.102 312.927 379.184 321.555 380.017 330.087C380.849 338.618 381.349 346.665 381.515 354.227C381.682 361.789 381.848 367.703 381.848 372.357V380.016C381.848 383.215 381.848 386.9 381.765 390.971C381.682 395.043 381.515 399.406 381.182 403.963C380.849 408.519 380.516 413.173 380.1 417.73V417.633Z" fill="#E77370"/>
<path d="M436.02 424.569C428.11 424.569 421.283 422.243 415.537 417.686C409.792 413.129 404.963 406.924 401.133 399.168C397.303 391.412 394.472 382.493 392.64 372.216C390.808 361.94 389.809 351.275 389.809 340.029C389.809 329.558 390.808 318.797 392.806 308.035C394.805 297.274 397.885 287.482 401.965 278.756C406.045 270.031 411.291 262.953 417.619 257.33C423.947 251.707 431.524 248.993 440.267 248.993C449.009 248.993 455.92 251.707 461.666 257.039C467.411 262.372 471.99 269.255 475.404 277.787C478.818 286.318 481.316 295.819 482.731 306.29C484.147 316.761 484.98 327.328 484.98 337.799C484.98 349.53 483.98 360.582 481.982 371.053C479.984 381.523 476.986 390.734 472.906 398.684C468.826 406.634 463.747 412.935 457.586 417.589C451.424 422.242 444.263 424.569 436.02 424.569ZM438.352 298.825C435.937 298.825 433.772 299.988 432.024 302.218C430.275 304.448 428.86 307.454 427.694 311.138C426.528 314.822 425.696 318.991 425.196 323.547C424.696 328.104 424.447 332.757 424.447 337.411C424.447 342.646 424.696 347.882 425.279 353.214C425.862 358.546 426.695 363.2 427.86 367.369C429.026 371.538 430.442 374.931 432.19 377.548C433.939 380.166 436.02 381.426 438.518 381.426C441.349 381.426 443.597 379.778 445.263 376.482C446.928 373.186 448.26 369.211 449.259 364.557C450.258 359.904 450.841 355.056 451.174 350.112C451.507 345.167 451.674 340.998 451.674 337.702C451.674 333.63 451.424 329.364 451.008 324.905C450.592 320.445 449.842 316.276 448.76 312.398C447.677 308.52 446.345 305.418 444.68 302.8C443.014 300.182 440.85 298.922 438.268 298.922L438.352 298.825Z" fill="#E77370"/>
<path d="M598.085 376.72C598.085 382.925 597.835 389.226 597.335 395.722C596.836 402.218 595.92 408.616 594.588 414.724C593.256 420.832 591.507 426.746 589.259 432.175C587.011 437.604 584.097 442.452 580.683 446.621C577.269 450.79 573.022 453.989 568.11 456.413C563.197 458.837 557.452 460 550.874 460C541.216 460 532.806 457.382 525.645 452.147C518.485 446.912 512.49 440.125 507.743 431.981C502.997 423.838 499.417 414.627 497.086 404.448C494.754 394.268 493.589 384.282 493.589 374.393V371.484C493.589 370.612 493.589 369.739 493.755 368.964C493.922 365.764 494.088 361.499 494.421 356.166C494.754 350.834 495.254 345.017 496.087 338.812C496.919 332.607 497.835 326.306 499.084 319.907C500.333 313.508 501.915 307.691 503.913 302.553C505.912 297.415 508.326 293.246 511.157 289.949C513.988 286.653 517.319 285.005 521.232 285.005C524.063 285.005 526.478 285.974 528.393 287.913C530.308 289.852 531.89 292.276 533.139 295.282C534.388 298.287 535.221 301.293 535.72 304.492C536.22 307.691 536.47 310.697 536.47 313.411C536.47 317.483 536.136 321.555 535.387 325.724C534.638 329.893 533.972 333.965 533.389 338.037C532.39 344.532 531.557 350.931 530.891 357.427C530.225 363.922 529.892 370.515 529.892 377.301C529.892 380.792 530.058 384.961 530.391 389.905C530.724 394.849 531.557 399.6 532.806 404.254C534.055 408.907 535.97 412.785 538.301 415.985C540.633 419.184 543.963 420.832 548.043 420.832C552.123 420.832 555.204 419.281 557.619 416.082C560.033 412.882 561.782 409.198 562.948 404.835C564.113 400.473 564.863 395.916 565.196 391.068C565.529 386.221 565.695 382.149 565.695 378.659C565.695 368.77 564.946 358.978 563.53 349.283C562.115 339.588 560.2 329.893 557.952 320.295C557.286 317.774 556.786 315.156 556.286 312.636C555.787 310.115 555.62 307.497 555.62 304.977C555.62 300.808 556.703 297.124 558.784 293.924C560.866 290.725 563.947 289.174 567.777 289.174C571.024 289.174 574.022 290.628 576.769 293.537C579.517 296.445 582.015 300.323 584.18 305.074C586.345 309.824 588.26 315.059 589.925 320.973C591.59 326.887 592.923 332.607 594.088 338.424C595.254 344.241 596.087 349.768 596.669 355.003C597.252 360.238 597.585 364.504 597.752 367.8C597.918 369.255 597.918 370.806 597.918 372.163V376.817L598.085 376.72Z" fill="#E77370"/>
<path d="M699.75 316.514C699.75 326.887 697.668 336.195 693.588 344.435C689.508 352.676 684.013 359.947 677.102 366.249C679.184 369.836 681.265 374.102 683.513 378.853C685.762 383.603 687.677 388.742 689.425 394.074C691.174 399.406 692.589 404.738 693.672 410.071C694.754 415.403 695.337 420.347 695.337 424.807C695.337 429.655 694.338 433.92 692.339 437.798C690.341 441.676 686.927 443.518 682.181 443.518C678.185 443.518 674.771 441.289 671.856 436.732C668.942 432.175 666.361 426.843 664.113 420.638C661.865 414.433 659.783 408.035 657.951 401.636C656.12 395.237 654.288 390.002 652.622 386.124C650.291 386.997 648.043 388.063 645.878 389.129C643.713 390.196 641.465 391.359 639.134 392.426C638.967 395.722 638.801 400.279 638.468 406.096C638.135 411.913 637.468 417.633 636.303 423.353C635.137 429.073 633.555 434.017 631.39 438.186C629.225 442.355 626.145 444.488 622.314 444.488C618.068 444.488 614.737 442.452 612.406 438.38C610.075 434.308 608.409 429.558 607.493 423.935C606.578 418.311 605.995 412.688 605.828 406.871C605.662 401.054 605.662 396.498 605.662 393.201C605.662 386.124 605.828 379.144 606.078 372.357C606.328 365.571 606.494 358.59 606.494 351.513C606.494 345.017 606.411 338.618 606.244 332.123C606.078 325.627 605.995 319.131 605.995 312.539V306.819C605.995 304.492 606.078 302.068 606.244 299.644C606.411 297.221 606.661 294.797 606.911 292.567C607.16 290.337 607.66 288.495 608.243 287.138C609.492 283.938 612.489 280.933 617.069 278.121C621.648 275.31 626.644 272.789 632.14 270.559C637.635 268.33 642.964 266.681 648.21 265.421C653.455 264.161 657.369 263.482 659.95 263.482C666.528 263.482 672.356 264.936 677.352 267.748C682.348 270.559 686.594 274.437 689.925 279.382C693.255 284.326 695.836 289.852 697.502 296.251C699.167 302.65 700 309.339 700 316.417L699.75 316.514ZM663.946 319.616C663.946 315.738 663.197 312.733 661.615 310.697C660.033 308.661 657.535 307.691 654.038 307.691C651.457 307.691 648.876 308.176 646.211 309.242C643.547 310.309 641.132 311.472 638.967 312.83C639.467 324.658 639.717 336.485 639.55 348.216C642.298 347.15 645.045 345.793 647.876 344.145C650.707 342.496 653.289 340.46 655.703 338.037C658.118 335.613 660.033 332.898 661.615 329.893C663.197 326.887 663.946 323.397 663.946 319.519V319.616Z" fill="#E77370"/>
<path d="M136.526 266.793C141.717 258.723 149.929 239.248 145.419 231.196C140.886 223.061 131.822 216.674 131.702 207.446C131.667 199.263 140.576 191.534 149.382 192.201C158.258 192.762 165.001 201.462 162.754 209.544C160.956 205.395 161.963 208.42 162.907 203.893C163.851 199.366 158.46 189.858 169.469 185.573C177.112 182.634 186.006 187.286 189.018 194.136C192.03 200.987 190.355 209.005 187.589 216.246C179.152 238.542 159.826 257.522 136.229 266.783" fill="#E77370"/>
</svg>
