<?xml version="1.0" encoding="UTF-8"?>
<svg id="Calque_2" data-name="Calque 2" xmlns="http://www.w3.org/2000/svg" viewBox="0 0 130 72.39">
  <defs>
    <style>
      .cls-1 { fill: #262626; }
      .cls-2 { fill: #fc7484; }
    </style>
  </defs>
  <g id="Calque_1-2" data-name="Calque 1">
    <g>
      <g>
        <path class="cls-1" d="M60.83,27.25c-.08.65-.18,1.3-.32,1.92s-.31,1.19-.51,1.68-.46.88-.77,1.17-.67.43-1.08.43-.77-.31-1.09-.92-.64-1.43-.92-2.45-.55-2.17-.79-3.45c-.24-1.28-.45-2.58-.64-3.91-.19-1.32-.35-2.61-.47-3.87s-.23-2.35-.3-3.28c-.15.96-.33,2.03-.53,3.21-.2,1.18-.44,2.38-.72,3.6-.28,1.22-.58,2.42-.91,3.58s-.68,2.21-1.06,3.13-.78,1.65-1.21,2.21-.88.83-1.36.83c-.43,0-.86-.29-1.28-.87s-.84-1.34-1.25-2.28c-.4-.94-.78-1.99-1.13-3.15-.35-1.16-.68-2.32-.98-3.49s-.57-2.28-.79-3.32-.4-1.92-.53-2.62c0,.53,0,1.11-.02,1.75s-.02,1.1-.02,1.38c0,.13,0,.54-.02,1.25s-.06,1.55-.13,2.53-.19,2.03-.34,3.15-.37,2.16-.66,3.11-.65,1.76-1.08,2.42-.96,1.01-1.58,1.06c-.5-.23-.92-.61-1.26-1.15s-.62-1.18-.85-1.91-.4-1.51-.53-2.34-.23-1.64-.3-2.43-.12-1.53-.13-2.21-.02-1.23-.02-1.66c0-.75.04-1.7.13-2.85s.23-2.35.43-3.6.47-2.52.79-3.77c.33-1.26.72-2.38,1.19-3.38s1.01-1.81,1.62-2.43c.62-.63,1.33-.94,2.13-.94.38,0,.78.21,1.21.64s.86.99,1.28,1.68.84,1.47,1.25,2.32.79,1.72,1.15,2.58c.36.87.69,1.7.96,2.49s.5,1.47.68,2.02c.2-.6.45-1.31.75-2.11s.64-1.64,1-2.51.77-1.72,1.21-2.57.9-1.6,1.38-2.26c.48-.67.96-1.21,1.45-1.62s.99-.62,1.49-.62c.88,0,1.64.33,2.26.98s1.16,1.5,1.58,2.55.77,2.21,1.02,3.51c.25,1.3.45,2.58.58,3.85s.23,2.46.26,3.57c.04,1.11.06,2,.06,2.68v1.13c0,.48,0,1.02-.02,1.62s-.04,1.25-.09,1.92-.11,1.36-.19,2.04Z"/>
        <path class="cls-1" d="M72.37,38.84c-1.53,0-2.87-.38-4-1.15-1.13-.77-2.07-1.8-2.81-3.09-.74-1.3-1.3-2.8-1.66-4.51s-.55-3.51-.55-5.4c0-1.76.19-3.55.58-5.36s.99-3.45,1.79-4.91c.81-1.46,1.82-2.65,3.06-3.58,1.23-.93,2.7-1.4,4.42-1.4s3.05.45,4.17,1.34,2.01,2.05,2.68,3.47c.67,1.42,1.14,3.01,1.43,4.77s.43,3.52.43,5.28c0,1.96-.19,3.82-.58,5.57-.39,1.75-.98,3.29-1.77,4.62-.79,1.33-1.79,2.39-2.98,3.17-1.19.78-2.6,1.17-4.21,1.17ZM72.82,17.79c-.48,0-.89.19-1.23.57s-.62.87-.85,1.49-.39,1.31-.49,2.08-.15,1.54-.15,2.32c0,.88.06,1.76.17,2.64s.28,1.67.51,2.38.51,1.27.85,1.7.75.64,1.23.64c.55,0,.99-.28,1.32-.83s.58-1.22.77-2,.31-1.58.38-2.42c.06-.83.09-1.52.09-2.08,0-.68-.04-1.4-.13-2.15-.09-.75-.23-1.45-.43-2.09s-.47-1.18-.79-1.6-.74-.64-1.25-.64Z"/>
        <path class="cls-1" d="M96.48,2.64c0,.63-.25,1.2-.74,1.72s-1.08.97-1.77,1.36-1.4.71-2.13.96-1.33.43-1.81.53c-.2,1.94-.36,3.87-.47,5.79s-.17,3.86-.17,5.79c0,1.03.03,2.05.08,3.06s.08,2.01.08,3.02c0,.45-.04.95-.13,1.49s-.24,1.05-.45,1.53-.51.88-.89,1.21-.84.49-1.4.49c-.65,0-1.18-.18-1.57-.55s-.69-.81-.91-1.34-.36-1.09-.43-1.68-.11-1.13-.11-1.6c-.05-1.51-.09-3.03-.11-4.55-.03-1.52-.04-3.05-.04-4.58,0-1.28,0-2.54.02-3.77s.02-2.49.02-3.77c-.35.05-.71.09-1.08.11s-.74.04-1.11.04c-.3,0-.7-.03-1.19-.09s-.96-.18-1.42-.34-.84-.39-1.17-.68c-.33-.29-.49-.66-.49-1.11,0-.75.3-1.42.89-1.98.59-.57,1.35-1.06,2.26-1.47.92-.42,1.94-.77,3.06-1.06,1.12-.29,2.23-.52,3.32-.68,1.09-.16,2.1-.28,3.02-.36.92-.08,1.63-.11,2.13-.11s.99.02,1.53.06c.54.04,1.05.14,1.53.32s.87.44,1.19.79.47.84.47,1.47Z"/>
        <path class="cls-1" d="M103.79,7.74c0,.58-.18,1.08-.55,1.51-.36.43-.8.78-1.3,1.06-.45.28-.92.57-1.4.89s-.92.67-1.32,1.06-.73.82-.98,1.3-.38,1.02-.38,1.62c0,.53.13,1.01.38,1.43s.56.85.92,1.26.77.84,1.21,1.28.84.93,1.21,1.47.67,1.15.92,1.83.38,1.47.38,2.38c0,.63-.13,1.34-.4,2.13-.26.79-.62,1.59-1.08,2.4s-.99,1.58-1.6,2.34-1.27,1.43-1.96,2.02c-.69.59-1.42,1.07-2.17,1.43-.75.36-1.48.55-2.19.55-.78,0-1.47-.21-2.08-.64-.6-.43-.91-1.07-.91-1.92,0-.58.14-1.11.42-1.6.28-.49.62-.96,1.02-1.42s.85-.89,1.34-1.32.94-.86,1.34-1.28.74-.87,1.02-1.34.42-.96.42-1.49c0-.73-.26-1.48-.77-2.25-.52-.77-1.09-1.56-1.72-2.38s-1.2-1.65-1.72-2.51-.77-1.72-.77-2.6c0-1.08.29-2.22.87-3.42.58-1.19,1.32-2.29,2.23-3.28.91-.99,1.92-1.82,3.06-2.47,1.13-.65,2.25-.98,3.36-.98.88,0,1.64.26,2.26.79s.94,1.25.94,2.15Z"/>
      </g>
      <g>
        <path class="cls-1" d="M23.32,47.11c0,2.66-.54,5.23-1.63,7.69-1.09,2.47-2.55,4.65-4.38,6.56-1.83,1.91-3.96,3.43-6.4,4.56s-5,1.7-7.69,1.7h-.09c-.54,0-.99-.25-1.34-.75s-.64-1.13-.88-1.88-.42-1.6-.54-2.54-.21-1.85-.27-2.75c-.06-.89-.09-1.69-.09-2.41v-1.61c0-1.03.02-2.05.05-3.06s.08-2.03.14-3.06c0-.33.02-.82.07-1.47s.1-1.38.16-2.2.14-1.67.23-2.56.19-1.72.29-2.5.21-1.45.32-2.04.23-.99.39-1.2c.39-.67,1-1.26,1.82-1.77s1.7-.94,2.65-1.27c.95-.33,1.92-.58,2.9-.75s1.84-.25,2.56-.25c2,0,3.73.37,5.2,1.11s2.69,1.74,3.68,2.99c.98,1.26,1.71,2.7,2.18,4.33.47,1.63.7,3.34.7,5.13ZM15.7,48.43c0-.67-.12-1.35-.36-2.04-.24-.7-.58-1.33-1.02-1.91s-.97-1.04-1.59-1.38-1.31-.52-2.06-.52c-.64,0-1.29.15-1.95.45-.15.09-.29.37-.41.84s-.22,1.04-.29,1.7-.14,1.39-.2,2.18-.1,1.54-.11,2.25-.03,1.34-.05,1.88-.02.91-.02,1.09v1.34c0,.59.02,1.17.07,1.75s.1,1.07.16,1.5.17.64.32.64c.91,0,1.81-.36,2.7-1.07s1.7-1.58,2.43-2.61,1.31-2.1,1.75-3.22c.44-1.12.66-2.07.66-2.86Z"/>
        <path class="cls-1" d="M41.07,62.23c0,.48-.04,1.05-.13,1.73s-.25,1.31-.49,1.92-.56,1.13-.97,1.55-.95.63-1.62.63c-.89,0-1.55-.32-2-.97s-.76-1.42-.95-2.32-.31-1.82-.34-2.75-.07-1.68-.09-2.23c-1.73.29-3.43.54-5.11.76-.05.55-.15,1.23-.31,2.05s-.4,1.6-.72,2.36-.74,1.41-1.26,1.96-1.14.83-1.89.83c-.58,0-1.02-.21-1.35-.63s-.57-.92-.74-1.49-.27-1.17-.31-1.78-.05-1.12-.05-1.53c0-1.37.11-2.72.32-4.05.22-1.33.47-2.66.76-3.97.14-.7.34-1.51.58-2.45s.53-1.9.88-2.89.76-1.98,1.22-2.95,1-1.84,1.6-2.61,1.28-1.39,2.05-1.87c.77-.48,1.62-.72,2.55-.72s1.7.2,2.37.61,1.26.95,1.76,1.62.92,1.43,1.26,2.28c.34.85.62,1.71.85,2.59s.42,1.73.58,2.57.29,1.58.41,2.23c.31,1.56.58,3.13.79,4.73.22,1.59.32,3.19.32,4.8ZM34.13,53.49c0-.29-.02-.76-.05-1.42s-.11-1.32-.23-1.98-.31-1.25-.56-1.76-.59-.77-1.02-.77c-.24,0-.47.16-.68.49s-.41.73-.58,1.22-.32,1.04-.45,1.64-.25,1.17-.34,1.73-.17,1.05-.22,1.49-.08.76-.11.95c1.44-.12,2.85-.3,4.24-.54v-1.04Z"/>
        <path class="cls-1" d="M70.62,65.6c-.08.71-.2,1.4-.35,2.08s-.33,1.28-.55,1.81-.5.95-.83,1.26-.73.47-1.16.47-.83-.33-1.18-1-.69-1.55-1-2.65-.6-2.34-.85-3.72c-.26-1.38-.49-2.79-.69-4.21-.2-1.42-.37-2.81-.51-4.17-.14-1.36-.24-2.54-.33-3.54-.16,1.03-.35,2.18-.57,3.46s-.47,2.57-.77,3.89c-.3,1.32-.62,2.6-.98,3.87s-.73,2.39-1.14,3.38-.84,1.78-1.3,2.38-.95.9-1.47.9c-.46,0-.92-.31-1.38-.94s-.91-1.44-1.34-2.46-.84-2.15-1.22-3.4-.73-2.5-1.06-3.76-.61-2.46-.85-3.58-.43-2.07-.57-2.83c0,.57,0,1.2-.02,1.89s-.02,1.19-.02,1.49c0,.14,0,.58-.02,1.34s-.06,1.67-.14,2.73-.2,2.19-.37,3.4-.4,2.33-.71,3.36-.7,1.9-1.16,2.6c-.46.71-1.03,1.09-1.71,1.14-.54-.24-1-.66-1.36-1.24s-.67-1.27-.92-2.06c-.24-.79-.43-1.63-.57-2.52-.14-.9-.24-1.77-.33-2.62-.08-.85-.13-1.65-.14-2.38s-.02-1.33-.02-1.79c0-.81.05-1.84.14-3.07s.25-2.53.47-3.89c.22-1.36.5-2.71.85-4.07.35-1.36.78-2.57,1.28-3.64.5-1.07,1.09-1.95,1.75-2.62.67-.68,1.43-1.02,2.3-1.02.41,0,.84.23,1.3.69s.92,1.06,1.38,1.81.91,1.58,1.34,2.5.85,1.85,1.24,2.79.74,1.83,1.04,2.69.54,1.58.73,2.18c.22-.65.49-1.41.81-2.28.33-.87.69-1.77,1.08-2.71.39-.94.83-1.86,1.3-2.77s.97-1.72,1.49-2.44c.52-.72,1.04-1.3,1.57-1.75s1.06-.67,1.61-.67c.95,0,1.76.35,2.44,1.06s1.25,1.62,1.71,2.75c.46,1.13.83,2.39,1.1,3.78s.48,2.78.63,4.15.24,2.65.28,3.85.06,2.16.06,2.89v1.22c0,.52,0,1.1-.02,1.75s-.05,1.34-.1,2.08c-.05.73-.12,1.47-.2,2.2Z"/>
        <path class="cls-1" d="M81.23,66.86c-1.46,0-2.73-.37-3.81-1.1-1.08-.73-1.97-1.71-2.68-2.95-.71-1.23-1.23-2.67-1.58-4.3s-.52-3.34-.52-5.14c0-1.68.19-3.38.56-5.11.37-1.73.94-3.28,1.71-4.68.77-1.39,1.74-2.53,2.91-3.42,1.17-.89,2.58-1.33,4.21-1.33s2.91.43,3.97,1.28,1.92,1.95,2.55,3.31c.64,1.35,1.09,2.87,1.37,4.55s.41,3.36.41,5.03c0,1.87-.19,3.64-.56,5.3-.37,1.67-.94,3.13-1.69,4.41-.76,1.27-1.7,2.28-2.84,3.02-1.14.74-2.48,1.11-4.01,1.11ZM81.66,46.79c-.46,0-.85.18-1.17.54s-.59.83-.81,1.42-.37,1.25-.47,1.98-.14,1.47-.14,2.21c0,.84.05,1.68.16,2.52s.27,1.59.49,2.27c.22.67.49,1.21.81,1.62s.71.61,1.17.61c.53,0,.95-.26,1.26-.79s.56-1.16.74-1.91c.18-.74.3-1.51.36-2.3s.09-1.45.09-1.98c0-.65-.04-1.33-.13-2.05s-.22-1.38-.41-2c-.19-.61-.44-1.12-.76-1.53s-.71-.61-1.19-.61Z"/>
        <path class="cls-1" d="M111.11,59.08c0,.98-.05,2-.14,3.04s-.26,2.06-.5,3.04-.57,1.91-.99,2.79c-.42.88-.95,1.64-1.6,2.3-.65.66-1.43,1.18-2.34,1.56s-1.98.58-3.2.58c-1.8,0-3.36-.42-4.69-1.26-1.33-.84-2.44-1.91-3.33-3.22s-1.55-2.77-1.98-4.39-.65-3.22-.65-4.8v-.47c0-.14.01-.28.04-.4.02-.5.07-1.19.13-2.05.06-.86.16-1.79.31-2.77s.33-1.99.56-3.02.53-1.95.9-2.77.82-1.49,1.35-2.01,1.15-.79,1.87-.79c.53,0,.97.16,1.33.47s.65.7.88,1.17.39.96.49,1.47.14.99.14,1.42c0,.65-.07,1.3-.2,1.96s-.26,1.31-.38,1.96c-.19,1.03-.35,2.06-.47,3.09s-.18,2.09-.18,3.16c0,.55.03,1.22.09,2.01s.21,1.55.45,2.28.58,1.35,1.02,1.87,1.05.77,1.82.77,1.34-.25,1.78-.76.77-1.1.99-1.8.35-1.43.41-2.19.09-1.43.09-1.98c0-1.58-.13-3.15-.4-4.69s-.61-3.09-1.04-4.62c-.12-.41-.22-.82-.31-1.22s-.13-.82-.13-1.22c0-.67.2-1.26.59-1.76s.95-.76,1.67-.76c.6,0,1.16.23,1.67.7s.98,1.08,1.38,1.83.76,1.6,1.06,2.54c.3.94.56,1.86.77,2.79.22.92.38,1.8.49,2.64s.17,1.52.2,2.05c.02.24.04.47.04.7v.74Z"/>
        <path class="cls-1" d="M130,49.46c0,1.65-.38,3.14-1.15,4.46-.77,1.32-1.79,2.48-3.06,3.49.38.58.78,1.25,1.19,2.01s.77,1.58,1.1,2.43.59,1.7.79,2.55.31,1.64.31,2.36c0,.77-.19,1.46-.56,2.07-.37.61-1,.92-1.89.92-.74,0-1.38-.36-1.92-1.08s-1.02-1.58-1.44-2.57c-.42-.99-.8-2.01-1.15-3.04s-.68-1.86-.99-2.48c-.43.14-.85.31-1.26.49s-.83.35-1.26.52c-.02.53-.07,1.25-.13,2.18-.06.92-.19,1.84-.4,2.75s-.51,1.7-.92,2.37c-.41.67-.97,1.01-1.69,1.01-.79,0-1.4-.32-1.83-.97-.43-.65-.74-1.41-.92-2.3s-.28-1.79-.31-2.72-.04-1.65-.04-2.18c0-1.13.02-2.24.07-3.33s.07-2.2.07-3.33c0-1.03-.02-2.06-.05-3.09-.04-1.03-.05-2.07-.05-3.13v-.92c0-.37.02-.76.05-1.15s.08-.77.13-1.13.13-.65.25-.86c.24-.5.79-.98,1.64-1.44s1.79-.86,2.81-1.2,2.01-.62,2.98-.83,1.7-.31,2.18-.31c1.22,0,2.3.23,3.24.68s1.71,1.07,2.34,1.85c.62.78,1.09,1.68,1.4,2.7s.47,2.09.47,3.22ZM123.35,49.97c0-.62-.14-1.1-.43-1.42s-.76-.49-1.4-.49c-.48,0-.96.08-1.46.25s-.94.36-1.35.58c.1,1.89.13,3.78.11,5.65.5-.17,1.02-.38,1.55-.65s1.01-.59,1.46-.97c.44-.38.81-.82,1.1-1.29s.43-1.03.43-1.65Z"/>
      </g>
      <path class="cls-2" d="M24.61,41.98c.98-1.32,2.65-4.59,2.06-6.13-.59-1.55-1.97-2.9-1.82-4.55.14-1.46,1.71-2.62,3.15-2.3,1.43.32,2.38,2.02,1.88,3.41-.23-.78-.11-.22.12-1,.23-.78-.48-2.61,1.39-3.11,1.3-.35,2.67.69,3.04,1.99.37,1.29-.03,2.69-.6,3.91-1.76,3.76-5.22,6.68-9.23,7.78"/>
    </g>
  </g>
</svg>
